<?xml version="1.0" standalone="no"?>
<!DOCTYPE svg PUBLIC "-//W3C//DTD SVG 20010904//EN"
 "http://www.w3.org/TR/2001/REC-SVG-20010904/DTD/svg10.dtd">
<svg version="1.0" xmlns="http://www.w3.org/2000/svg"
 width="200.000000pt" height="50.000000pt" viewBox="0 0 200.000000 50.000000"
 preserveAspectRatio="xMidYMid meet">

<g transform="translate(0.000000,50.000000) scale(0.100000,-0.100000)"
fill="#000000" stroke="none">
<path d="M356 424 c-4 -14 -4 -29 -1 -34 10 -16 34 -11 44 9 9 15 6 22 -13 35
-23 14 -24 14 -30 -10z"/>
<path d="M78 413 c-45 -49 -56 -93 -23 -93 17 0 18 3 44 68 23 58 17 65 -21
25z"/>
<path d="M213 428 c-19 -23 -84 -211 -81 -231 5 -34 26 -31 48 6 19 32 24 35
55 30 26 -4 36 -2 41 11 8 21 -13 46 -37 46 -24 0 -24 7 1 71 16 39 18 54 9
65 -14 17 -24 18 -36 2z"/>
<path d="M627 383 c-4 -3 -7 -35 -7 -70 0 -49 3 -63 15 -63 9 0 15 9 15 25 0
20 5 25 25 25 16 0 25 6 25 15 0 9 -9 15 -25 15 -16 0 -25 6 -25 15 0 10 10
15 30 15 20 0 30 5 30 15 0 11 -11 15 -38 15 -21 0 -42 -3 -45 -7z"/>
<path d="M760 320 c0 -54 3 -70 14 -70 9 0 16 12 18 33 l3 32 18 -32 c10 -18
24 -33 32 -33 18 0 18 5 4 32 -8 14 -8 23 0 31 15 15 14 50 -1 65 -7 7 -29 12
-50 12 l-38 0 0 -70z m75 25 c0 -5 -10 -11 -22 -13 -16 -2 -23 2 -23 13 0 11
7 15 23 13 12 -2 22 -7 22 -13z"/>
<path d="M910 320 l0 -70 45 0 c33 0 45 4 45 15 0 10 -10 15 -31 15 -35 0 -36
23 -1 28 12 2 22 7 22 12 0 5 -10 10 -22 12 -35 5 -34 28 1 28 21 0 31 5 31
15 0 11 -12 15 -45 15 l-45 0 0 -70z"/>
<path d="M1050 320 l0 -70 39 0 c52 0 84 27 84 70 0 43 -32 70 -84 70 l-39 0
0 -70z m78 31 c8 -5 12 -21 10 -37 -2 -23 -9 -30 -30 -32 -27 -3 -28 -1 -28
37 0 42 16 53 48 32z"/>
<path d="M1280 320 c0 -56 3 -70 15 -70 10 0 15 10 15 31 0 27 3 30 28 27 21
-2 28 -9 30 -30 2 -16 9 -28 18 -28 11 0 14 16 14 70 0 54 -3 70 -14 70 -9 0
-16 -12 -18 -27 -2 -22 -9 -29 -30 -31 -25 -3 -28 0 -28 27 0 21 -5 31 -15 31
-12 0 -15 -14 -15 -70z"/>
<path d="M1440 342 c0 -60 21 -92 60 -92 39 0 60 32 60 92 0 36 -4 48 -15 48
-11 0 -15 -11 -15 -39 0 -52 -8 -71 -30 -71 -22 0 -30 19 -30 71 0 28 -4 39
-15 39 -11 0 -15 -12 -15 -48z"/>
<path d="M1590 375 c0 -8 9 -15 20 -15 18 0 20 -7 20 -55 0 -42 3 -55 15 -55
12 0 15 13 15 55 0 42 3 55 15 55 8 0 15 7 15 15 0 11 -12 15 -50 15 -38 0
-50 -4 -50 -15z"/>
<path d="M1739 372 c-51 -42 -16 -126 50 -120 49 4 50 32 1 32 -33 1 -35 3
-35 36 0 33 2 35 32 36 39 0 53 11 33 24 -24 15 -56 12 -81 -8z"/>
<path d="M1870 320 c0 -54 3 -70 14 -70 9 0 16 12 18 28 2 21 9 28 31 30 24 3
27 0 27 -27 0 -21 5 -31 15 -31 12 0 15 14 15 70 0 56 -3 70 -15 70 -10 0 -15
-10 -15 -30 0 -27 -3 -30 -30 -30 -27 0 -30 3 -30 30 0 20 -5 30 -15 30 -12 0
-15 -14 -15 -70z"/>
<path d="M325 348 c-2 -7 -23 -64 -46 -126 -22 -62 -38 -120 -35 -128 8 -20
34 -17 46 6 24 45 91 241 85 250 -9 14 -45 12 -50 -2z"/>
<path d="M452 283 c-17 -57 -15 -73 8 -73 16 0 20 6 19 33 -1 17 -4 43 -8 56
-6 23 -8 22 -19 -16z"/>
<path d="M632 171 c-23 -14 -10 -56 18 -58 l25 -3 -23 10 c-27 11 -26 46 1 44
9 -1 17 2 17 7 0 11 -21 11 -38 0z"/>
<path d="M703 150 c3 -59 56 -52 57 8 0 13 -4 20 -10 17 -5 -3 -10 -18 -10
-31 0 -35 -23 -26 -32 12 -6 27 -6 27 -5 -6z"/>
<path d="M791 143 c0 -30 2 -34 9 -18 7 18 8 19 15 3 11 -28 20 -21 20 15 0
26 -4 33 -22 35 -21 3 -23 -1 -22 -35z m34 17 c3 -5 -1 -10 -9 -10 -9 0 -16 5
-16 10 0 6 4 10 9 10 6 0 13 -4 16 -10z"/>
<path d="M870 145 c0 -30 3 -35 23 -34 16 1 18 2 5 6 -21 5 -23 19 -5 26 10 4
10 6 0 6 -19 1 -16 19 5 24 13 4 11 5 -5 6 -20 1 -23 -4 -23 -34z"/>
<path d="M934 168 c-4 -6 0 -16 9 -23 22 -16 21 -25 0 -26 -11 0 -13 -2 -5 -6
7 -3 20 -2 29 1 14 6 14 9 -3 27 -16 17 -16 22 -4 29 13 8 12 10 -2 10 -9 0
-20 -5 -24 -12z"/>
<path d="M1034 168 c-4 -6 1 -17 12 -25 16 -12 17 -15 4 -23 -13 -8 -13 -10 2
-10 26 0 32 20 12 35 -17 13 -17 16 -4 25 13 8 13 10 -2 10 -9 0 -20 -5 -24
-12z"/>
<path d="M1109 143 c4 -31 6 -33 9 -13 2 14 9 31 14 38 8 9 5 12 -9 12 -16 0
-18 -5 -14 -37z"/>
<path d="M1168 147 l-16 -33 33 0 33 0 -15 31 c-9 16 -16 31 -17 32 -2 2 -9
-12 -18 -30z"/>
<path d="M1241 143 c0 -30 2 -34 9 -18 7 18 8 19 15 3 11 -28 21 -21 20 15 0
25 -5 33 -22 35 -21 3 -23 -1 -22 -35z m34 17 c3 -5 -1 -10 -9 -10 -9 0 -16 5
-16 10 0 6 4 10 9 10 6 0 13 -4 16 -10z"/>
<path d="M1317 172 c6 -4 13 -21 16 -37 l4 -30 2 32 c0 17 7 34 14 36 6 3 -1
6 -18 6 -16 0 -25 -3 -18 -7z"/>
<path d="M1418 174 c-12 -11 -10 -64 2 -64 6 0 10 7 10 15 0 21 28 19 33 -2 3
-10 5 0 5 22 0 22 -2 32 -5 23 -6 -22 -30 -23 -35 -2 -2 9 -6 12 -10 8z"/>
<path d="M1500 145 c0 -32 3 -35 28 -34 16 1 20 3 10 6 -21 5 -23 19 -5 26 10
4 10 6 0 6 -19 1 -16 19 5 24 10 3 6 5 -10 6 -25 1 -28 -2 -28 -34z"/>
<path d="M1577 173 c-11 -10 -8 -63 3 -63 6 0 10 8 10 17 0 15 2 14 16 -3 13
-16 15 -16 10 -2 -3 10 -1 20 5 24 6 4 6 11 -2 20 -12 15 -31 18 -42 7z m33
-13 c0 -5 -4 -10 -10 -10 -5 0 -10 5 -10 10 0 6 5 10 10 10 6 0 10 -4 10 -10z"/>
<path d="M1650 145 c0 -32 3 -35 28 -34 l27 1 -25 7 c-24 7 -24 7 -5 19 l20
11 -20 1 c-20 1 -20 1 -1 15 19 15 19 15 -2 15 -18 0 -22 -6 -22 -35z"/>
<path d="M87 101 c-4 -18 27 -61 37 -50 11 11 17 59 8 59 -6 0 -17 3 -25 6 -9
3 -16 -2 -20 -15z"/>
</g>
</svg>
